<svg width="16" height="25" viewBox="0 0 16 25" fill="none" xmlns="http://www.w3.org/2000/svg">
<path d="M13.4906 13.5062C14.9562 12.0406 15.7656 10.0883 15.7656 8.01562C15.7656 5.94023 14.959 3.99062 13.4906 2.525C12.025 1.05937 10.0727 0.25 8 0.25C5.92734 0.25 3.975 1.05664 2.50938 2.525C1.04375 3.99336 0.234375 5.94023 0.234375 8.01562C0.234375 9.76016 0.805859 11.4172 1.85859 12.7707C2.0582 13.0277 2.27422 13.2711 2.50664 13.5062C2.73906 13.7387 2.98516 13.9547 3.23945 14.1543C4.32227 14.9965 5.59922 15.5324 6.96094 15.7129V18.625H3.84375C3.72344 18.625 3.625 18.7234 3.625 18.8438V20.4844C3.625 20.6047 3.72344 20.7031 3.84375 20.7031H6.96094V24.5312C6.96094 24.6516 7.05937 24.75 7.17969 24.75H8.82031C8.94063 24.75 9.03906 24.6516 9.03906 24.5312V20.7031H12.1562C12.2766 20.7031 12.375 20.6047 12.375 20.4844V18.8438C12.375 18.7234 12.2766 18.625 12.1562 18.625H9.03906V15.7129C10.7207 15.4887 12.2711 14.7258 13.4906 13.5062ZM8 13.7031C6.47969 13.7031 5.05508 13.1125 3.97773 12.0379C2.90312 10.9633 2.3125 9.53594 2.3125 8.01562C2.3125 6.49531 2.90312 5.0707 3.97773 3.99336C5.05234 2.91602 6.47969 2.32812 8 2.32812C9.52031 2.32812 10.9449 2.91875 12.0223 3.99336C13.0969 5.06797 13.6875 6.49531 13.6875 8.01562C13.6875 9.53594 13.0969 10.9605 12.0223 12.0379C10.9449 13.1125 9.52031 13.7031 8 13.7031Z" fill="#FF579E"/>
</svg>
