<svg width="40" height="41" viewBox="0 0 40 41" fill="none" xmlns="http://www.w3.org/2000/svg">
<path d="M20 36.2129C16.8355 36.2129 13.7421 35.2745 11.1109 33.5164C8.4797 31.7583 6.42894 29.2595 5.21793 26.3358C4.00693 23.4122 3.69008 20.1952 4.30744 17.0915C4.92481 13.9878 6.44866 11.1368 8.6863 8.89919C10.9239 6.66155 13.7749 5.1377 16.8786 4.52033C19.9823 3.90297 23.1993 4.21982 26.1229 5.43083C29.0466 6.64183 31.5454 8.69259 33.3035 11.3238C35.0616 13.955 36 17.0484 36 20.2129C35.9912 24.4537 34.3027 28.5182 31.304 31.5169C28.3053 34.5156 24.2408 36.2041 20 36.2129ZM20 6.7129C17.33 6.7129 14.7199 7.50466 12.4998 8.98806C10.2797 10.4715 8.54942 12.5799 7.52763 15.0467C6.50585 17.5135 6.23851 20.2279 6.75941 22.8466C7.28031 25.4654 8.56606 27.8708 10.4541 29.7588C12.3421 31.6469 14.7475 32.9326 17.3663 33.4535C19.985 33.9744 22.6994 33.7071 25.1662 32.6853C27.633 31.6635 29.7414 29.9332 31.2248 27.7131C32.7082 25.493 33.5 22.8829 33.5 20.2129C33.5 16.6325 32.0777 13.1987 29.5459 10.667C27.0142 8.13522 23.5804 6.7129 20 6.7129Z" fill="black"/>
<path d="M20.0009 13.5462C19.782 13.5463 19.5653 13.5032 19.363 13.4194C19.1608 13.3357 18.977 13.2129 18.8222 13.0582C18.6674 12.9034 18.5446 12.7196 18.4609 12.5174C18.3771 12.3152 18.334 12.0984 18.334 11.8796C18.334 11.6607 18.3771 11.4439 18.4609 11.2417C18.5446 11.0395 18.6674 10.8557 18.8222 10.701C18.977 10.5462 19.1608 10.4234 19.363 10.3397C19.5653 10.2559 19.782 10.2129 20.0009 10.2129C20.2198 10.2129 20.4366 10.2559 20.6388 10.3397C20.841 10.4234 21.0248 10.5462 21.1796 10.701C21.3344 10.8557 21.4572 11.0395 21.5409 11.2417C21.6247 11.4439 21.6678 11.6607 21.6678 11.8796C21.6678 12.0984 21.6247 12.3152 21.5409 12.5174C21.4572 12.7196 21.3344 12.9034 21.1796 13.0582C21.0248 13.2129 20.841 13.3357 20.6388 13.4194C20.4366 13.5032 20.2198 13.5463 20.0009 13.5462ZM20.0009 30.2129C19.6707 30.2086 19.3553 30.0755 19.1218 29.842C18.8883 29.6085 18.7552 29.2931 18.7509 28.9629V17.4796C18.7509 17.148 18.8826 16.8301 19.117 16.5957C19.3514 16.3613 19.6694 16.2296 20.0009 16.2296C20.3324 16.2296 20.6504 16.3613 20.8848 16.5957C21.1192 16.8301 21.2509 17.148 21.2509 17.4796V29.0129C21.234 29.3343 21.0954 29.6372 20.8632 29.8601C20.631 30.083 20.3227 30.2091 20.0009 30.2129Z" fill="black"/>
</svg>
