<svg width="23" height="28" viewBox="0 0 23 28" fill="none" xmlns="http://www.w3.org/2000/svg">
<path d="M11.0859 0C8.16961 0.00344047 5.37372 1.16347 3.31157 3.22563C1.24942 5.28778 0.0893897 8.08367 0.0859492 11C0.0824563 13.3832 0.860929 15.7018 2.30195 17.6C2.30195 17.6 2.60195 17.995 2.65095 18.052L11.0859 28L19.5249 18.047C19.5689 17.994 19.8699 17.6 19.8699 17.6L19.8709 17.597C21.3112 15.6996 22.0893 13.3821 22.0859 11C22.0825 8.08367 20.9225 5.28778 18.8603 3.22563C16.7981 1.16347 14.0023 0.00344047 11.0859 0ZM11.0859 15C10.2948 15 9.52145 14.7654 8.86366 14.3259C8.20586 13.8864 7.69317 13.2616 7.39042 12.5307C7.08767 11.7998 7.00846 10.9956 7.1628 10.2196C7.31714 9.44372 7.6981 8.73098 8.25751 8.17157C8.81692 7.61216 9.52965 7.2312 10.3056 7.07686C11.0815 6.92252 11.8858 7.00173 12.6167 7.30448C13.3476 7.60723 13.9723 8.11992 14.4118 8.77772C14.8513 9.43552 15.0859 10.2089 15.0859 11C15.0846 12.0605 14.6628 13.0771 13.9129 13.827C13.163 14.5768 12.1464 14.9987 11.0859 15Z" fill="#99A1B6"/>
</svg>
