<svg width="301" height="300" viewBox="0 0 301 300" fill="none" xmlns="http://www.w3.org/2000/svg">
<path fill-rule="evenodd" clip-rule="evenodd" d="M264.819 90.7011L288.996 115.425L236.73 168.873L293.026 226.442L268.848 251.166L188.375 168.873L264.819 90.7011Z" fill="#4572FB"/>
<path fill-rule="evenodd" clip-rule="evenodd" d="M202.325 35.1871L178.676 11.0095L127.552 63.2757L72.4864 6.98006L48.8373 31.1576L127.552 111.631L202.325 35.1871Z" fill="#4572FB"/>
<path fill-rule="evenodd" clip-rule="evenodd" d="M286.188 120.47C293.822 112.835 293.822 100.457 286.188 92.8221L280.263 86.8977L213.091 86.1409L211.145 17.779L207.195 13.8294C199.56 6.19473 187.182 6.19473 179.547 13.8294L179.578 119.655L286.188 120.47Z" fill="#212121"/>
<path d="M211.127 29.6217L211.129 17.7734L207.179 13.8237C199.544 6.18909 187.166 6.1891 179.531 13.8237L179.53 61.2188L211.127 29.6217Z" fill="#384766"/>
<path d="M270.38 88.8736L282.229 88.8724L286.178 92.822C293.813 100.457 293.813 112.835 286.178 120.469L238.783 120.471L270.38 88.8736Z" fill="#384766"/>
<path fill-rule="evenodd" clip-rule="evenodd" d="M90.702 264.819L115.426 288.996L168.874 236.73L226.442 293.026L251.167 268.848L168.874 188.375L90.702 264.819Z" fill="#DDE3F5"/>
<path fill-rule="evenodd" clip-rule="evenodd" d="M35.1909 202.326L11.0134 178.677L63.2796 127.553L6.98396 72.4874L31.1615 48.8383L111.635 127.553L35.1909 202.326Z" fill="#DDE3F5"/>
<path fill-rule="evenodd" clip-rule="evenodd" d="M120.466 286.177C112.831 293.812 100.453 293.812 92.8182 286.177L86.8937 280.252L86.137 213.081L17.7751 211.134L13.8254 207.184C6.19082 199.55 6.19082 187.171 13.8255 179.537L119.651 179.567L120.466 286.177Z" fill="#212121"/>
<path d="M29.6217 211.134L17.7734 211.135L13.8237 207.186C6.18909 199.551 6.18909 187.173 13.8237 179.538L61.2188 179.537L29.6217 211.134Z" fill="#4572FB"/>
<path d="M88.8687 270.378L88.8675 282.227L92.8172 286.176C100.452 293.811 112.83 293.811 120.465 286.176L120.466 238.781L88.8687 270.378Z" fill="#4572FB"/>
</svg>
