<svg width="40" height="40" viewBox="0 0 40 40" fill="none" xmlns="http://www.w3.org/2000/svg">
<path fill-rule="evenodd" clip-rule="evenodd" d="M37.88 30H36V16C36 7.16344 28.8365 0 20 0C11.1634 0 3.99997 7.16344 3.99997 16V30H2.21997C1.1154 30 0.219971 30.8954 0.219971 32C0.219971 33.1046 1.1154 34 2.21997 34H14C14 37.3137 16.6863 40 20 40C23.3137 40 26 37.3137 26 34H37.88C38.9845 34 39.88 33.1046 39.88 32C39.88 30.8954 38.9845 30 37.88 30ZM20 36C18.8954 36 18 35.1046 18 34H22C22 35.1046 21.1045 36 20 36ZM7.99997 30H24H32V16C32 9.37258 26.6274 4 20 4C13.3726 4 7.99997 9.37258 7.99997 16V30Z" fill="#99A1B6"/>
</svg>
