<svg width="40" height="40" viewBox="0 0 40 40" fill="none" xmlns="http://www.w3.org/2000/svg">
<path fill-rule="evenodd" clip-rule="evenodd" d="M6 0H12C15.3137 0 18 2.68629 18 6V12C18 15.3137 15.3137 18 12 18H6C2.68629 18 0 15.3137 0 12V6C0 2.68629 2.68629 0 6 0ZM12 14C13.1046 14 14 13.1046 14 12V6C14 4.89543 13.1046 4 12 4H6C4.89543 4 4 4.89543 4 6V12C4 13.1046 4.89543 14 6 14H12ZM12 22H6C2.68629 22 0 24.6863 0 28V34C0 37.3137 2.68629 40 6 40H12C15.3137 40 18 37.3137 18 34V28C18 24.6863 15.3137 22 12 22ZM12 36C13.1046 36 14 35.1046 14 34V28C14 26.8954 13.1046 26 12 26H6C4.89543 26 4 26.8954 4 28V34C4 35.1046 4.89543 36 6 36H12ZM34 22H28C24.6863 22 22 24.6863 22 28V34C22 37.3137 24.6863 40 28 40H34C37.3137 40 40 37.3137 40 34V28C40 24.6863 37.3137 22 34 22ZM34 36C35.1046 36 36 35.1046 36 34V28C36 26.8954 35.1046 26 34 26H28C26.8954 26 26 26.8954 26 28V34C26 35.1046 26.8954 36 28 36H34ZM34 0H28C24.6863 0 22 2.68629 22 6V12C22 15.3137 24.6863 18 28 18H34C37.3137 18 40 15.3137 40 12V6C40 2.68629 37.3137 0 34 0ZM34 14C35.1046 14 36 13.1046 36 12V6C36 4.89543 35.1046 4 34 4H28C26.8954 4 26 4.89543 26 6V12C26 13.1046 26.8954 14 28 14H34Z" fill="#4572FB"/>
</svg>
