<svg width="28" height="35" viewBox="0 0 28 35" fill="none" xmlns="http://www.w3.org/2000/svg">
<path d="M5.16797 22.596C5.16797 23.171 5.64116 23.6442 6.21612 23.6442H21.8927C22.4676 23.6442 22.9408 23.171 22.9408 22.596C22.9408 22.021 22.4676 21.5479 21.8927 21.5479H6.21612C5.63608 21.5479 5.16797 22.021 5.16797 22.596ZM21.8927 26.8548H6.21612C5.64116 26.8548 5.16797 27.328 5.16797 27.9029C5.16797 28.4779 5.64116 28.9511 6.21612 28.9511H21.8927C22.4676 28.9511 22.9408 28.4779 22.9408 27.9029C22.9408 27.328 22.4676 26.8548 21.8927 26.8548Z" fill="black"/>
<path d="M17.722 0.212891H2.09631C0.941304 0.212891 0 1.1542 0 2.3092V32.5124C0 33.6674 0.941304 34.6087 2.09631 34.6087H25.9037C27.0587 34.6087 28 33.6674 28 32.5124V10.4909L17.722 0.212891ZM19.0856 4.54289L23.9142 9.37153H19.4468C19.2535 9.37153 19.0856 9.20362 19.0856 9.01027V4.54289ZM25.8986 32.5073L2.09631 32.5124C2.09631 32.5124 2.09122 32.5124 2.09122 32.5073V2.31429C2.09122 2.31429 2.09122 2.3092 2.09631 2.3092H16.9028L16.9842 2.39061V9.00519C16.9842 10.3586 18.0934 11.4628 19.4418 11.4628H25.8986V32.5073Z" fill="black"/>
<path d="M9.86432 11.2854C11.7113 11.2854 13.2072 9.78951 13.2072 7.94251C13.2072 6.09552 11.7113 4.59961 9.86432 4.59961C8.01732 4.59961 6.51632 6.09043 6.51632 7.94251C6.51632 9.78951 8.01224 11.2854 9.86432 11.2854ZM9.86432 6.43134C10.6988 6.43134 11.3755 7.10806 11.3755 7.94251C11.3755 8.77697 10.6988 9.45369 9.86432 9.45369C9.02986 9.45369 8.35314 8.77697 8.35314 7.94251C8.35314 7.10806 9.02986 6.43134 9.86432 6.43134ZM6.21612 17.0503C6.79617 17.0503 7.26428 16.5822 7.26428 16.0021C7.26428 14.8675 8.4549 13.9058 9.86432 13.9058C11.2737 13.9058 12.4644 14.8624 12.4644 16.0021C12.4644 16.5822 12.9325 17.0503 13.5125 17.0503C14.0926 17.0503 14.5607 16.5822 14.5607 16.0021C14.5607 13.6921 12.4542 11.8095 9.86432 11.8095C7.27446 11.8095 5.16797 13.6921 5.16797 16.0021C5.16797 16.5822 5.63608 17.0503 6.21612 17.0503Z" fill="black"/>
</svg>
