<svg width="30" height="30" viewBox="0 0 30 30" fill="none" xmlns="http://www.w3.org/2000/svg">
<path fill-rule="evenodd" clip-rule="evenodd" d="M21.4064 19.6601L30 28.2606L28.315 30L19.7214 21.3754C14.7856 25.4857 7.50529 24.9894 3.16852 20.2471C-1.16824 15.5048 -1.03781 8.18251 3.46508 3.59878C7.96797 -0.984944 15.2613 -1.21969 20.0476 3.06505C24.8338 7.34979 25.4315 14.6486 21.4064 19.6601ZM5.41544 5.27835C1.71082 8.99636 1.57636 14.9815 5.11024 18.8633C8.97806 22.41 14.9416 22.275 18.6463 18.557C22.3509 14.839 22.4853 8.85385 18.9514 4.97205C15.0836 1.42539 9.12005 1.56034 5.41544 5.27835Z" fill="#CCCCCC"/>
</svg>
