<svg width="25" height="24" viewBox="0 0 25 24" fill="none" xmlns="http://www.w3.org/2000/svg">
<path fill-rule="evenodd" clip-rule="evenodd" d="M0.892822 12C0.892822 5.3724 6.26522 0 12.8928 0C19.5204 0 24.8928 5.3724 24.8928 12C24.8928 18.6276 19.5204 24 12.8928 24C6.26522 24 0.892822 18.6276 0.892822 12ZM19.1699 7.46505L10.9696 15.8081L7.81559 12.5992C7.46722 12.2448 6.90238 12.2448 6.55401 12.5992C6.20563 12.9537 6.20563 13.5283 6.55401 13.8828L10.3388 17.7334C10.6871 18.0878 11.252 18.0878 11.6003 17.7334L20.4314 8.74859C20.7798 8.39415 20.7798 7.81949 20.4314 7.46505C20.0831 7.11061 19.5182 7.11061 19.1699 7.46505Z" fill="#4572FB"/>
</svg>
