<svg width="30" height="28" viewBox="0 0 30 28" fill="none" xmlns="http://www.w3.org/2000/svg">
<path d="M8.3329 20.2235L15.3504 25.1454V2.85722L8.3329 7.77908H2.55512V20.2235H8.3329ZM8.3329 22.0013H2.11068C1.3743 22.0013 0.777344 21.464 0.777344 20.8013V7.2013C0.777344 6.53856 1.3743 6.0013 2.11068 6.0013H8.3329L15.444 0.667969C16.4259 0.667969 17.2218 1.22761 17.2218 1.91797V26.0846C17.2218 26.775 16.4259 27.3346 15.444 27.3346L8.3329 22.0013Z" fill="white"/>
<path d="M25.0562 3.94467C27.6299 6.51839 29.2218 10.0739 29.2218 14.0013C29.2218 17.9287 27.6299 21.4842 25.0562 24.0579L23.7991 22.8009C26.0511 20.5489 27.444 17.4377 27.444 14.0013C27.444 10.5649 26.0511 7.45375 23.7991 5.20175L25.0562 3.94467ZM21.285 7.71591C22.8935 9.32448 23.8885 11.5467 23.8885 14.0013C23.8885 16.4559 22.8935 18.6781 21.285 20.2867L20.0279 19.0296C21.3147 17.7428 22.1107 15.965 22.1107 14.0013C22.1107 12.0376 21.3147 10.2598 20.0279 8.97299L21.285 7.71591ZM20.6474 20.5607C20.1565 20.5607 19.7585 20.1627 19.7585 19.6718C19.7585 19.1809 20.1565 18.7829 20.6474 18.7829C21.1383 18.7829 21.5363 19.1809 21.5363 19.6718C21.5363 20.1627 21.1383 20.5607 20.6474 20.5607ZM20.6809 9.25078C20.19 9.25078 19.792 8.85281 19.792 8.36189C19.792 7.87097 20.19 7.473 20.6809 7.473C21.1718 7.473 21.5698 7.87097 21.5698 8.36189C21.5698 8.85281 21.1718 9.25078 20.6809 9.25078ZM24.4138 24.3262C23.9229 24.3262 23.525 23.9282 23.525 23.4373C23.525 22.9464 23.9229 22.5484 24.4138 22.5484C24.9048 22.5484 25.3027 22.9464 25.3027 23.4373C25.3027 23.9282 24.9048 24.3262 24.4138 24.3262ZM24.4173 5.45062C23.9264 5.45062 23.5284 5.05266 23.5284 4.56174C23.5284 4.07082 23.9264 3.67285 24.4173 3.67285C24.9082 3.67285 25.3062 4.07082 25.3062 4.56174C25.3062 5.05266 24.9082 5.45062 24.4173 5.45062Z" fill="white"/>
</svg>
