<svg width="31" height="30" viewBox="0 0 31 30" fill="none" xmlns="http://www.w3.org/2000/svg">
<path d="M19.5856 9.26234L19.8183 9.73382L20.3386 9.8094L28.2481 10.9584L28.2488 10.9585C29.0868 11.0796 29.425 12.1132 28.8158 12.7073L23.0919 18.2856L22.7153 18.6527L22.8043 19.1709L24.1558 27.0459L24.1559 27.0464C24.3001 27.8847 23.4214 28.5236 22.6682 28.1277L15.5943 24.4077L15.1288 24.1629L14.6634 24.4077L7.59137 28.1275C7.59122 28.1276 7.59106 28.1276 7.59091 28.1277C6.83887 28.5223 5.95968 27.8839 6.10211 27.0467C6.10213 27.0465 6.10215 27.0464 6.10217 27.0463L7.45348 19.1709L7.54238 18.6528L7.16602 18.2858L1.44352 12.7058L1.44304 12.7054C0.836088 12.1143 1.17034 11.0808 2.01114 10.9584C2.0112 10.9584 2.01125 10.9584 2.01131 10.9584L9.92064 9.8094L10.4409 9.73382L10.6736 9.26234L14.2106 2.09535C14.5863 1.3341 15.673 1.3341 16.0486 2.09535L19.5856 9.26234Z" fill="#F9FAFE" stroke="#99A1B6" stroke-width="2"/>
</svg>
