<svg width="41" height="40" viewBox="0 0 41 40" fill="none" xmlns="http://www.w3.org/2000/svg">
<path fill-rule="evenodd" clip-rule="evenodd" d="M30.5 10C30.5 4.47715 26.0228 0 20.5 0C14.9772 0 10.5 4.47715 10.5 10C10.5 15.5228 14.9772 20 20.5 20H18.5C8.55887 20 0.5 28.0589 0.5 38C0.5 39.1046 1.39543 40 2.5 40H38.5C39.6046 40 40.5 39.1046 40.5 38C40.5 28.0589 32.4411 20 22.5 20H20.5C23.1522 20 25.6957 18.9464 27.5711 17.0711C29.4464 15.1957 30.5 12.6522 30.5 10ZM18.5 24C11.5392 23.9982 5.63439 29.1106 4.64 36H36.36C35.3656 29.1106 29.4608 23.9982 22.5 24H18.5ZM14.5 10C14.5 13.3137 17.1863 16 20.5 16C22.0913 16 23.6174 15.3679 24.7426 14.2426C25.8679 13.1174 26.5 11.5913 26.5 10C26.5 6.68629 23.8137 4 20.5 4C17.1863 4 14.5 6.68629 14.5 10Z" fill="#99A1B6"/>
</svg>
